<svg width="76" height="79" viewBox="0 0 76 79" fill="none" xmlns="http://www.w3.org/2000/svg">
<g filter="url(#filter0_d_114_712)">
<path d="M13.2279 55.2038L13.2279 43.5861L43.1104 13.7037L51.2279 13.7037L57.7279 13.7037L68.5662 13.7037L13.2279 69.0419L13.2279 64.7037L13.2279 55.2038Z" fill="url(#paint0_linear_114_712)"/>
</g>
<path d="M16.7594 50.6781L18.1062 52.025L19.8058 50.3255L20.501 51.0207L18.8015 52.7203L20.1752 54.094L22.3315 51.9377L23.0537 52.6598L19.9905 55.723L15.1337 50.8662L18.1969 47.803L18.9157 48.5218L16.7594 50.6781Z" fill="#362A0B"/>
<path d="M27.8009 47.9126L26.9008 48.8127C26.8381 48.8754 26.772 48.9101 26.7026 48.9168C26.6354 48.9213 26.5705 48.9146 26.5078 48.8967L23.5185 48.1578C23.5566 48.2317 23.5834 48.3011 23.5991 48.366L24.2406 51.1639C24.2518 51.2288 24.2563 51.296 24.2541 51.3654C24.2518 51.4303 24.2227 51.4908 24.1667 51.5467L23.3237 52.3898L22.437 48.2787L18.5307 47.4692L19.4309 46.5691C19.4936 46.5064 19.5473 46.4705 19.5921 46.4616C19.6369 46.4482 19.6906 46.4482 19.7533 46.4616L22.6385 47.1367C22.6049 47.0583 22.5758 46.9755 22.5512 46.8882L21.9701 44.2784C21.9522 44.2112 21.9477 44.153 21.9567 44.1037C21.9656 44.0545 21.9925 44.0075 22.0373 43.9627L22.9005 43.0995L23.6596 46.9822L27.8009 47.9126Z" fill="#362A0B"/>
<path d="M30.3674 43.0554C30.4166 43.0062 30.4793 42.9816 30.5555 42.9816L31.2977 43.0118C31.3448 43.4529 31.2888 43.8828 31.1298 44.3015C30.9731 44.718 30.6932 45.1278 30.2901 45.5308C29.9296 45.8914 29.5434 46.1545 29.1313 46.3202C28.7216 46.4836 28.3051 46.5575 27.8819 46.5418C27.4587 46.5262 27.04 46.4209 26.6257 46.2261C26.2137 46.0291 25.8275 45.7503 25.4669 45.3898C25.102 45.0248 24.8265 44.6329 24.6407 44.2142C24.4526 43.7932 24.3541 43.3678 24.3451 42.9379C24.3384 42.5057 24.4213 42.0825 24.5937 41.6683C24.7638 41.2518 25.0269 40.8655 25.383 40.5095C25.7368 40.1557 26.1085 39.9004 26.4981 39.7437C26.8899 39.5847 27.2762 39.503 27.6569 39.4985L27.7744 40.2207C27.7834 40.2654 27.7834 40.3125 27.7744 40.3617C27.7677 40.4087 27.7397 40.4569 27.6904 40.5061C27.6569 40.5397 27.6132 40.5655 27.5595 40.5834C27.5035 40.5991 27.4408 40.6147 27.3714 40.6304C27.2997 40.6439 27.2191 40.6618 27.1295 40.6842C27.04 40.7066 26.9448 40.7413 26.844 40.7883C26.741 40.8331 26.6313 40.8958 26.5149 40.9764C26.3984 41.0525 26.2764 41.1544 26.1488 41.282C25.9316 41.4992 25.7715 41.7377 25.6685 41.9974C25.5655 42.2527 25.5229 42.5192 25.5408 42.7968C25.5565 43.0722 25.6349 43.3521 25.776 43.6365C25.9148 43.9186 26.1197 44.1952 26.3906 44.4661C26.6638 44.7393 26.9448 44.9442 27.2337 45.0808C27.5247 45.2151 27.8091 45.289 28.0868 45.3025C28.3644 45.3159 28.632 45.2722 28.8895 45.1715C29.1448 45.0685 29.3754 44.914 29.5814 44.708C29.7046 44.5848 29.8087 44.4672 29.8938 44.3553C29.9811 44.2411 30.0516 44.128 30.1054 44.016C30.1614 43.9019 30.2039 43.7854 30.233 43.6667C30.2621 43.5436 30.28 43.4115 30.2868 43.2704C30.289 43.2279 30.2968 43.1887 30.3103 43.1528C30.3215 43.1148 30.3405 43.0823 30.3674 43.0554Z" fill="#362A0B"/>
<path d="M34.7179 39.5043L35.4635 40.25L32.6186 43.0949L27.7619 38.2381L28.6654 37.3346L32.7765 41.4457L34.7179 39.5043Z" fill="#362A0B"/>
<path d="M37.2033 37.0525C37.378 36.8778 37.5045 36.6931 37.5829 36.4983C37.6635 36.3012 37.6982 36.103 37.687 35.9038C37.6758 35.7045 37.6198 35.5052 37.5191 35.3059C37.4205 35.1044 37.2783 34.9107 37.0925 34.7248L34.1838 31.8161L35.0873 30.9126L37.996 33.8213C38.2849 34.1102 38.5054 34.4248 38.6577 34.7651C38.8099 35.101 38.8883 35.4458 38.8928 35.7996C38.8973 36.1489 38.8256 36.4983 38.6778 36.8476C38.5278 37.1946 38.2972 37.5238 37.9859 37.835C37.6724 38.1485 37.3422 38.3803 36.9951 38.5303C36.6458 38.6781 36.2953 38.7509 35.9438 38.7486C35.5923 38.7419 35.2474 38.6635 34.9093 38.5135C34.5712 38.359 34.2577 38.1373 33.9689 37.8485L31.0602 34.9398L31.9637 34.0363L34.869 36.9416C35.0548 37.1275 35.2474 37.2708 35.4467 37.3715C35.6482 37.4701 35.8498 37.526 36.0513 37.5395C36.2528 37.5484 36.451 37.5137 36.6458 37.4354C36.8428 37.3547 37.0287 37.2271 37.2033 37.0525Z" fill="#362A0B"/>
<path d="M39.5759 28.1908C39.596 28.2647 39.6016 28.3285 39.5927 28.3822C39.5837 28.4315 39.5568 28.4785 39.5121 28.5233C39.465 28.5703 39.3967 28.605 39.3072 28.6274C39.2176 28.6453 39.1135 28.6711 38.9948 28.7047C38.8761 28.7383 38.7485 28.7898 38.6119 28.8592C38.4753 28.9241 38.3376 29.026 38.1988 29.1648C38.0734 29.2902 37.9793 29.4156 37.9167 29.541C37.8517 29.6642 37.8136 29.7851 37.8025 29.9038C37.7935 30.0202 37.8114 30.1322 37.8562 30.2396C37.8987 30.3449 37.9648 30.4423 38.0544 30.5318C38.1686 30.646 38.2951 30.7099 38.4339 30.7233C38.575 30.7345 38.725 30.7143 38.884 30.6628C39.043 30.6113 39.2109 30.5397 39.3878 30.4479C39.5647 30.3561 39.7483 30.2643 39.9386 30.1725C40.1267 30.0784 40.3204 29.9967 40.5197 29.9273C40.7167 29.8556 40.9171 29.8164 41.1209 29.8097C41.3224 29.8008 41.5251 29.8355 41.7288 29.9138C41.9348 29.99 42.1386 30.1288 42.3401 30.3303C42.5596 30.5498 42.7275 30.7938 42.8439 31.0625C42.9604 31.3268 43.0175 31.6033 43.0152 31.8921C43.013 32.1765 42.9492 32.4642 42.8238 32.7553C42.6962 33.0442 42.498 33.323 42.2293 33.5917C42.0748 33.7462 41.9069 33.8828 41.7255 34.0014C41.5463 34.1224 41.3594 34.2242 41.1646 34.3071C40.972 34.3877 40.7761 34.4493 40.5768 34.4918C40.3775 34.5344 40.1827 34.5545 39.9924 34.5523L39.8244 33.8537C39.8155 33.7999 39.8188 33.7451 39.8345 33.6891C39.8479 33.6309 39.8748 33.5816 39.9151 33.5413C39.9711 33.4853 40.0551 33.4484 40.167 33.4305C40.2767 33.4103 40.4044 33.3834 40.5499 33.3498C40.6955 33.3163 40.8511 33.2636 41.0168 33.192C41.1825 33.1158 41.3493 32.9938 41.5172 32.8259C41.7747 32.5684 41.9136 32.3086 41.9337 32.0466C41.9516 31.7824 41.8464 31.5361 41.618 31.3077C41.4904 31.1801 41.3538 31.1084 41.2082 31.0928C41.0649 31.0748 40.9138 31.0916 40.7548 31.1431C40.5936 31.1924 40.4268 31.2652 40.2543 31.3615C40.0819 31.4577 39.9039 31.5529 39.7203 31.647C39.5367 31.741 39.3464 31.8238 39.1493 31.8955C38.9523 31.9672 38.7507 32.0052 38.5447 32.0097C38.3387 32.0142 38.1283 31.9739 37.9133 31.8888C37.6983 31.7992 37.48 31.6436 37.2583 31.4219C37.0814 31.245 36.9437 31.0379 36.8452 30.8005C36.7489 30.561 36.703 30.309 36.7075 30.0448C36.712 29.7806 36.7736 29.5108 36.8922 29.2354C37.0109 28.9599 37.1979 28.6946 37.4531 28.4393C37.7398 28.1527 38.0488 27.9333 38.3802 27.781C38.7116 27.6288 39.043 27.5481 39.3744 27.5392L39.5759 28.1908Z" fill="#362A0B"/>
<path d="M45.5567 30.1568L44.6498 31.0637L39.793 26.2069L40.6999 25.3001L45.5567 30.1568Z" fill="#362A0B"/>
<path d="M45.9488 20.0512L48.8441 26.8694L48.0279 27.6856L41.2096 24.7904L41.9351 24.0649C42.0135 23.9865 42.0963 23.9417 42.1836 23.9305C42.271 23.9193 42.3572 23.9316 42.4423 23.9675L46.55 25.7846C46.6844 25.8428 46.8266 25.9133 46.9766 25.9962C47.1266 26.0745 47.28 26.1607 47.4367 26.2548C47.3382 26.1025 47.2475 25.9536 47.1647 25.8081C47.0796 25.6603 47.0079 25.5192 46.9497 25.3849L45.1259 21.2838C45.0923 21.2144 45.08 21.1327 45.089 21.0386C45.1002 20.9423 45.1438 20.8561 45.22 20.78L45.9488 20.0512Z" fill="#362A0B"/>
<path d="M48.0772 19.3604L49.424 20.7072L51.1235 19.0077L51.8188 19.7029L50.1193 21.4025L51.493 22.7762L53.6493 20.6199L54.3715 21.342L51.3083 24.4052L46.4515 19.5484L49.5147 16.4853L50.2335 17.204L48.0772 19.3604Z" fill="#362A0B"/>
<defs>
<filter id="filter0_d_114_712" x="10.2279" y="12.7037" width="65.3383" height="65.3383" filterUnits="userSpaceOnUse" color-interpolation-filters="sRGB">
<feFlood flood-opacity="0" result="BackgroundImageFix"/>
<feColorMatrix in="SourceAlpha" type="matrix" values="0 0 0 0 0 0 0 0 0 0 0 0 0 0 0 0 0 0 127 0" result="hardAlpha"/>
<feOffset dx="2" dy="4"/>
<feGaussianBlur stdDeviation="2.5"/>
<feComposite in2="hardAlpha" operator="out"/>
<feColorMatrix type="matrix" values="0 0 0 0 0 0 0 0 0 0 0 0 0 0 0 0 0 0 0.2 0"/>
<feBlend mode="normal" in2="BackgroundImageFix" result="effect1_dropShadow_114_712"/>
<feBlend mode="normal" in="SourceGraphic" in2="effect1_dropShadow_114_712" result="shape"/>
</filter>
<linearGradient id="paint0_linear_114_712" x1="52.7279" y1="13.7037" x2="12.7279" y2="68.7037" gradientUnits="userSpaceOnUse">
<stop stop-color="#FDC93F"/>
<stop offset="1" stop-color="#F8B032"/>
</linearGradient>
</defs>
</svg>
