<svg width="35" height="27" viewBox="0 0 35 27" fill="none" xmlns="http://www.w3.org/2000/svg">
<g clip-path="url(#clip0_380_523)">
<path d="M31.5412 2.47926V4.47895H12.9981V2.47926H31.5412ZM31.5412 6.47865V8.47824H12.9981V6.47865H31.5412ZM31.5412 10.4779V12.4775H12.9981V10.4779H31.5412ZM31.5412 14.4772V16.4768H-5.98639V14.4772H31.5412ZM31.5412 18.4765V20.4761H-5.98639V18.4765H31.5412ZM31.5412 22.4804V24.4801H-5.98639V22.4758L31.5412 22.4804Z" fill="#F4F4F5"/>
<path d="M-5.99991 0.461418H31.5276V2.46112H-5.99991V0.461418ZM-5.99991 24.4572H31.5276V26.4614H-5.99991V24.4572ZM-5.99991 20.458H31.5276V22.4759H-5.99991V20.458ZM-5.99991 16.4586H31.5276V18.4583H-5.99991V16.4586ZM-5.99991 12.4593H31.5276V14.459H-5.99991V12.4593ZM-5.99991 8.45999H31.5276V10.4597H-5.99991V8.45999ZM-5.99991 4.4607H31.5276V6.4604H-5.99991V4.4607Z" fill="#F90805"/>
<path d="M-5.99991 0.479771H13.0199V14.4773H-5.99991V0.479771Z" fill="#0437A0"/>
<path d="M11.4349 1.17218L11.6071 1.72711H12.1678L11.7263 2.06649L11.8985 2.62142L11.457 2.27745L11.0155 2.62142L11.1921 2.06649L10.7506 1.72711H11.3113L11.4836 1.17218H11.4349ZM-4.4193 6.75373L-4.24716 7.30866H-3.69086L-4.13236 7.64805L-3.95581 8.20298L-4.39731 7.859L-4.83881 8.20298L-4.66656 7.64805L-5.10806 7.30866H-4.57386L-4.40173 6.75373H-4.4193ZM-2.82996 8.12964L-2.66213 8.68457H-2.10142L-2.54292 9.02854L-2.37078 9.57888L-2.81228 9.23491L-3.25378 9.57888L-3.08164 9.02854L-3.52314 8.68457H-2.96243L-2.78577 8.12964H-2.82996ZM9.84992 8.12964L10.0222 8.68457H10.5829L10.1414 9.02854L10.3135 9.57888L9.87202 9.23491L9.43052 9.57888L9.60718 9.02854L9.16568 8.68457H9.72629L9.89854 8.12964H9.84992ZM6.67998 8.12964L6.85212 8.68457H7.41283L6.97133 9.02854L7.14358 9.57888L6.70208 9.23491L6.26058 9.57888L6.43713 9.02854L5.99563 8.68457H6.55635L6.72859 8.12964H6.67998ZM3.51004 8.12964L3.68217 8.68457H4.25615L3.81465 9.02854L3.98678 9.57888L3.54528 9.23491L3.10378 9.57888L3.28045 9.02854L2.83895 8.68457H3.39966L3.5718 8.12964H3.51004ZM0.335673 8.12964L0.51223 8.68457H1.07294L0.631444 9.02854L0.803582 9.57888L0.362081 9.23491L-0.0794191 9.57888L0.0928264 9.02854L-0.348674 8.68457H0.21204L0.379758 8.12964H0.335673ZM-1.24493 6.75373L-1.0728 7.30866H-0.5165L-0.958001 7.64805L-0.785756 8.20298L-1.22726 7.859L-1.66876 8.20298L-1.49662 7.64805L-1.93812 7.30866H-1.37741L-1.20085 6.75373H-1.24493ZM8.26501 6.75373L8.43714 7.30866H8.99786L8.55636 7.64805L8.72849 8.20298L8.28699 7.859L7.84549 8.20298L8.02216 7.64805L7.58066 7.30866H8.14137L8.31351 6.75373H8.26501ZM11.4349 6.75373L11.6071 7.30866H12.1678L11.7263 7.64805L11.8985 8.20298L11.457 7.859L11.0155 8.20298L11.1921 7.64805L10.7506 7.30866H11.3113L11.4836 6.75373H11.4349ZM11.4349 9.54686L11.6071 10.0972H12.1678L11.7263 10.4412L11.8985 10.9961L11.457 10.6521L11.0155 10.9961L11.1921 10.4412L10.7506 10.0972H11.3113L11.4836 9.54686H11.4349ZM8.26501 9.54686L8.43714 10.0972H8.99786L8.55636 10.4412L8.72849 10.9961L8.28699 10.6521L7.84549 10.9961L8.02216 10.4412L7.58066 10.0972H8.14137L8.31351 9.54686H8.26501ZM-1.24493 9.54686L-1.0728 10.0972H-0.5165L-0.958001 10.4412L-0.785756 10.9961L-1.22726 10.6521L-1.66876 10.9961L-1.49662 10.4412L-1.93812 10.0972H-1.37741L-1.20085 9.54686H-1.24493ZM-2.82996 10.9228L-2.66213 11.4777H-2.10142L-2.54292 11.8171L-2.37078 12.372L-2.81228 12.028L-3.25378 12.372L-3.08164 11.8171L-3.52314 11.4777H-2.96243L-2.78577 10.9228H-2.82996ZM9.84992 10.9228L10.0222 11.4777H10.5829L10.1414 11.8171L10.3135 12.372L9.87202 12.028L9.43052 12.372L9.60718 11.8171L9.16568 11.4777H9.72629L9.89854 10.9228H9.84992ZM6.67998 10.9228L6.85212 11.4777H7.41283L6.97133 11.8171L7.14358 12.372L6.70208 12.028L6.26058 12.372L6.43713 11.8171L5.99563 11.4777H6.55635L6.72859 10.9228H6.67998ZM3.51004 10.9228L3.68217 11.4777H4.25615L3.81465 11.8171L3.98678 12.372L3.54528 12.028L3.10378 12.372L3.28045 11.8171L2.83895 11.4777H3.39966L3.5718 10.9228H3.51004ZM0.335673 10.9228L0.51223 11.4777H1.07294L0.631444 11.8171L0.803582 12.372L0.362081 12.028L-0.0794191 12.372L0.0928264 11.8171L-0.348674 11.4777H0.21204L0.379758 10.9228H0.335673ZM-4.4193 9.54686L-4.24716 10.0972H-3.69086L-4.13236 10.4412L-3.95581 10.9961L-4.39731 10.6521L-4.83881 10.9961L-4.66656 10.4412L-5.10806 10.0972H-4.57386L-4.40173 9.54686H-4.4193ZM-4.4193 12.3353L-4.24716 12.8903H-3.69086L-4.13236 13.2297L-3.95581 13.7846L-4.39731 13.4407L-4.83881 13.7846L-4.66656 13.2297L-5.10806 12.8903H-4.57386L-4.40173 12.3353H-4.4193ZM-1.24493 12.3353L-1.0728 12.8903H-0.5165L-0.958001 13.2297L-0.785756 13.7846L-1.22726 13.4407L-1.66876 13.7846L-1.49662 13.2297L-1.93812 12.8903H-1.37741L-1.20085 12.3353H-1.24493ZM8.26501 12.3353L8.43714 12.8903H8.99786L8.55636 13.2297L8.72849 13.7846L8.28699 13.4407L7.84549 13.7846L8.02216 13.2297L7.58066 12.8903H8.14137L8.31351 12.3353H8.26501ZM11.4349 12.3353L11.6071 12.8903H12.1678L11.7263 13.2297L11.8985 13.7846L11.457 13.4407L11.0155 13.7846L11.1921 13.2297L10.7506 12.8903H11.3113L11.4836 12.3353H11.4349ZM-2.80786 5.35946L-2.64014 5.91439H-2.07943L-2.52093 6.25378L-2.34868 6.80882L-2.79018 6.46485L-3.23169 6.80882L-3.05955 6.25378L-3.50105 5.91439H-2.94033L-2.76367 5.35946H-2.80786ZM-2.80786 2.56645L-2.64014 3.12138H-2.07943L-2.52093 3.46535L-2.34868 4.01569L-2.79018 3.67172L-3.23169 4.01569L-3.05955 3.46535L-3.50105 3.12138H-2.94033L-2.76367 2.56645H-2.80786ZM9.87202 2.56645L10.0443 3.12138H10.6049L10.1634 3.46535L10.3356 4.01569L9.89412 3.67172L9.45262 4.01569L9.62917 3.46535L9.18767 3.12138H9.74839L9.92063 2.56645H9.87202ZM6.70208 2.56645L6.87421 3.12138H7.43493L6.99343 3.46535L7.16567 4.01569L6.72417 3.67172L6.28267 4.01569L6.45923 3.46535L6.01773 3.12138H6.57844L6.75058 2.56645H6.70208ZM3.53213 2.56645L3.70427 3.12138H4.25615L3.81465 3.46535L3.98678 4.01569L3.54528 3.67172L3.10378 4.01569L3.28045 3.46535L2.83895 3.12138H3.39966L3.5718 2.56645H3.53213ZM0.357662 2.56645L0.534327 3.12138H1.09504L0.653541 3.46535L0.825678 4.01569L0.384178 3.67172L-0.0573225 4.01569L0.114923 3.46535L-0.326578 3.12138H0.234029L0.401855 2.56645H0.357662ZM-4.39731 3.94235L-4.22506 4.49269H-3.69086L-4.13236 4.83667L-3.95581 5.38701L-4.39731 5.04762L-4.83881 5.38701L-4.66656 4.83667L-5.10806 4.49269H-4.57386L-4.40173 3.94235H-4.39731ZM9.87202 5.31826L10.0443 5.87319H10.6049L10.1634 6.21257L10.3356 6.7675L9.89412 6.42353L9.45262 6.7675L9.62917 6.21257L9.18767 5.87319H9.74839L9.92063 5.31826H9.87202ZM6.70208 5.31826L6.87421 5.87319H7.43493L6.99343 6.21257L7.16567 6.7675L6.72417 6.42353L6.28267 6.7675L6.45923 6.21257L6.01773 5.87319H6.57844L6.75058 5.31826H6.70208ZM3.53213 5.31826L3.70427 5.87319H4.25615L3.81465 6.21257L3.98678 6.7675L3.54528 6.42353L3.10378 6.7675L3.28045 6.21257L2.83895 5.87319H3.39966L3.5718 5.31826H3.53213ZM0.357662 5.31826L0.534327 5.87319H1.09504L0.653541 6.21257L0.825678 6.7675L0.384178 6.42353L-0.0573225 6.7675L0.114923 6.21257L-0.326578 5.87319H0.234029L0.401855 5.31826H0.357662ZM-1.22284 3.94235L-1.0507 4.49269H-0.494404L-0.935905 4.83667L-0.763767 5.38701L-1.20527 5.04762L-1.64677 5.38701L-1.47452 4.83667L-1.91602 4.49269H-1.35531L-1.17875 3.94235H-1.22284ZM-1.22284 1.14922L-1.0507 1.70415H-0.494404L-0.935905 2.04354L-0.763767 2.59847L-1.20527 2.25449L-1.64677 2.59847L-1.47452 2.04354L-1.91602 1.70415H-1.35531L-1.17875 1.14922H-1.22284ZM-4.39731 1.14922L-4.22506 1.70415H-3.69086L-4.13236 2.04354L-3.95581 2.59847L-4.39731 2.25449L-4.83881 2.59847L-4.66656 2.04354L-5.10806 1.70415H-4.57386L-4.40173 1.14922H-4.39731ZM1.94711 12.3124L2.11924 12.8674H2.67554L2.23404 13.2068L2.40628 13.7617L1.96478 13.4177L1.52328 13.7617L1.69542 13.2068L1.25392 12.8674H1.81464L1.98688 12.3124H1.94711ZM1.94711 9.52391L2.11924 10.0742H2.67554L2.23404 10.4182L2.40628 10.9732L1.96478 10.6292L1.52328 10.9732L1.69542 10.4182L1.25392 10.0742H1.81464L1.98688 9.52391H1.94711ZM1.94711 6.73078L2.11924 7.28571H2.67554L2.23404 7.62521L2.40628 8.18014L1.96478 7.83616L1.52328 8.18014L1.69542 7.62521L1.25392 7.28571H1.81464L1.98688 6.73078H1.94711ZM1.94711 3.94235L2.11924 4.49269H2.67554L2.23404 4.83667L2.40628 5.38701L1.96478 5.04762L1.52328 5.38701L1.69542 4.83667L1.25392 4.49269H1.81464L1.98688 3.94235H1.94711ZM1.94711 1.14922L2.11924 1.70415H2.67554L2.23404 2.04354L2.40628 2.59847L1.96478 2.25449L1.52328 2.59847L1.69542 2.04354L1.25392 1.70415H1.81464L1.98688 1.14922H1.94711ZM5.11705 12.3124L5.2893 12.8674H5.85001L5.40851 13.2068L5.58065 13.7617L5.13915 13.4177L4.69765 13.7617L4.8742 13.2068L4.4327 12.8674H4.99342L5.16566 12.3124H5.11705ZM5.11705 9.52391L5.2893 10.0742H5.85001L5.40851 10.4182L5.58065 10.9732L5.13915 10.6292L4.69765 10.9732L4.8742 10.4182L4.4327 10.0742H4.99342L5.16566 9.52391H5.11705ZM5.11705 6.73078L5.2893 7.28571H5.85001L5.40851 7.62521L5.58065 8.18014L5.13915 7.83616L4.69765 8.18014L4.8742 7.62521L4.4327 7.28571H4.99342L5.16566 6.73078H5.11705ZM5.11705 3.94235L5.2893 4.49269H5.85001L5.40851 4.83667L5.58065 5.38701L5.13915 5.04762L4.69765 5.38701L4.8742 4.83667L4.4327 4.49269H4.99342L5.16566 3.94235H5.11705ZM5.11705 1.14922L5.2893 1.70415H5.85001L5.40851 2.04354L5.58065 2.59847L5.13915 2.25449L4.69765 2.59847L4.8742 2.04354L4.4327 1.70415H4.99342L5.16566 1.14922H5.11705ZM8.28699 3.94235L8.45924 4.49269H9.01995L8.57845 4.83667L8.75059 5.38701L8.30909 5.04762L7.86759 5.38701L8.04426 4.83667L7.60275 4.49269H8.16347L8.33561 3.94235H8.28699ZM8.28699 1.14922L8.45924 1.70415H9.01995L8.57845 2.04354L8.75059 2.59847L8.30909 2.25449L7.86759 2.59847L8.04426 2.04354L7.60275 1.70415H8.16347L8.33561 1.14922H8.28699ZM11.457 3.94235L11.6292 4.49269H12.1899L11.7484 4.83667L11.9206 5.38701L11.4791 5.04762L11.0376 5.38701L11.2142 4.83667L10.7727 4.49269H11.3334L11.5056 3.94235H11.457Z" fill="#F4F4F5"/>
</g>
<rect x="0.750092" y="1.21142" width="24.5" height="24.5" rx="12.25" stroke="#12395D" stroke-width="1.5"/>
<mask id="path-4-outside-1_380_523" maskUnits="userSpaceOnUse" x="20.1557" y="6.4616" width="15" height="15" fill="black">
<rect fill="white" x="20.1557" y="6.4616" width="15" height="15"/>
<path d="M32.6886 13.7236C32.6886 16.6418 30.3229 19.0075 27.4046 19.0075C24.4864 19.0075 22.1207 16.6418 22.1207 13.7236C22.1207 10.8053 24.4864 8.4396 27.4046 8.4396C30.3229 8.4396 32.6886 10.8053 32.6886 13.7236Z"/>
<path d="M27.3916 16.3833L24.498 13.4882C24.3516 13.3408 24.2694 13.1415 24.2694 12.9337C24.2694 12.7259 24.3516 12.5265 24.498 12.3792C24.57 12.3061 24.6557 12.248 24.7503 12.2084C24.8449 12.1688 24.9465 12.1483 25.049 12.1483C25.1516 12.1483 25.2531 12.1688 25.3477 12.2084C25.4423 12.248 25.5281 12.3061 25.6 12.3792L27.3916 14.1717L32.3087 9.25844C32.3807 9.18534 32.4664 9.12727 32.561 9.08765C32.6556 9.04802 32.7572 9.02763 32.8597 9.02763C32.9623 9.02763 33.0638 9.04802 33.1584 9.08765C33.253 9.12727 33.3388 9.18534 33.4107 9.25844C33.4838 9.33044 33.5418 9.41626 33.5814 9.5109C33.621 9.60555 33.6414 9.70711 33.6414 9.80972C33.6414 9.91232 33.621 10.0139 33.5814 10.1086C33.5418 10.2032 33.4838 10.289 33.4107 10.361L27.3916 16.3833Z"/>
<path d="M32.069 13.4352C32.1099 14.0517 32.029 14.6702 31.8309 15.2553C31.6328 15.8404 31.3213 16.3807 30.9143 16.8453C30.5072 17.3099 30.0127 17.6896 29.4588 17.9628C28.905 18.236 28.3027 18.3972 27.6865 18.4373C27.0682 18.4776 26.448 18.3951 25.8616 18.1945C25.2752 17.9939 24.7343 17.6793 24.27 17.2686C23.8057 16.858 23.4271 16.3596 23.1562 15.802C22.8852 15.2444 22.7271 14.6387 22.6911 14.0198C22.651 13.4038 22.7326 12.786 22.9312 12.2016C23.1297 11.6171 23.4414 11.0776 23.8484 10.6137C24.2553 10.1498 24.7497 9.77063 25.3031 9.49789C25.8566 9.22515 26.4583 9.06415 27.074 9.02408C28.0533 8.95939 29.0283 9.20363 29.8617 9.72244L30.905 8.53978C29.5351 7.60962 27.8521 7.26176 26.226 7.57269C24.5999 7.88363 23.1638 8.82791 22.2334 10.1979C21.7726 10.8767 21.4501 11.6397 21.2844 12.4432C21.1187 13.2468 21.1129 14.0752 21.2675 14.881C21.4221 15.6868 21.734 16.4543 22.1853 17.1394C22.6366 17.8245 23.2185 18.4139 23.8977 18.8738C24.5755 19.3342 25.3373 19.6566 26.1395 19.8224C26.9418 19.9883 27.7689 19.9944 28.5736 19.8405C29.3782 19.6866 30.1447 19.3756 30.8292 18.9253C31.5136 18.4749 32.1028 17.8942 32.5629 17.216C33.3352 16.0674 33.7039 14.6945 33.611 13.3133C33.5937 13.053 33.5603 12.794 33.511 12.5378C33.5826 12.5462 32.069 13.4352 32.069 13.4352Z"/>
</mask>
<path d="M32.6886 13.7236C32.6886 16.6418 30.3229 19.0075 27.4046 19.0075C24.4864 19.0075 22.1207 16.6418 22.1207 13.7236C22.1207 10.8053 24.4864 8.4396 27.4046 8.4396C30.3229 8.4396 32.6886 10.8053 32.6886 13.7236Z" fill="white"/>
<path d="M27.3916 16.3833L24.498 13.4882C24.3516 13.3408 24.2694 13.1415 24.2694 12.9337C24.2694 12.7259 24.3516 12.5265 24.498 12.3792C24.57 12.3061 24.6557 12.248 24.7503 12.2084C24.8449 12.1688 24.9465 12.1483 25.049 12.1483C25.1516 12.1483 25.2531 12.1688 25.3477 12.2084C25.4423 12.248 25.5281 12.3061 25.6 12.3792L27.3916 14.1717L32.3087 9.25844C32.3807 9.18534 32.4664 9.12727 32.561 9.08765C32.6556 9.04802 32.7572 9.02763 32.8597 9.02763C32.9623 9.02763 33.0638 9.04802 33.1584 9.08765C33.253 9.12727 33.3388 9.18534 33.4107 9.25844C33.4838 9.33044 33.5418 9.41626 33.5814 9.5109C33.621 9.60555 33.6414 9.70711 33.6414 9.80972C33.6414 9.91232 33.621 10.0139 33.5814 10.1086C33.5418 10.2032 33.4838 10.289 33.4107 10.361L27.3916 16.3833Z" fill="#12395D"/>
<path d="M32.069 13.4352C32.1099 14.0517 32.029 14.6702 31.8309 15.2553C31.6328 15.8404 31.3213 16.3807 30.9143 16.8453C30.5072 17.3099 30.0127 17.6896 29.4588 17.9628C28.905 18.236 28.3027 18.3972 27.6865 18.4373C27.0682 18.4776 26.448 18.3951 25.8616 18.1945C25.2752 17.9939 24.7343 17.6793 24.27 17.2686C23.8057 16.858 23.4271 16.3596 23.1562 15.802C22.8852 15.2444 22.7271 14.6387 22.6911 14.0198C22.651 13.4038 22.7326 12.786 22.9312 12.2016C23.1297 11.6171 23.4414 11.0776 23.8484 10.6137C24.2553 10.1498 24.7497 9.77063 25.3031 9.49789C25.8566 9.22515 26.4583 9.06415 27.074 9.02408C28.0533 8.95939 29.0283 9.20363 29.8617 9.72244L30.905 8.53978C29.5351 7.60962 27.8521 7.26176 26.226 7.57269C24.5999 7.88363 23.1638 8.82791 22.2334 10.1979C21.7726 10.8767 21.4501 11.6397 21.2844 12.4432C21.1187 13.2468 21.1129 14.0752 21.2675 14.881C21.4221 15.6868 21.734 16.4543 22.1853 17.1394C22.6366 17.8245 23.2185 18.4139 23.8977 18.8738C24.5755 19.3342 25.3373 19.6566 26.1395 19.8224C26.9418 19.9883 27.7689 19.9944 28.5736 19.8405C29.3782 19.6866 30.1447 19.3756 30.8292 18.9253C31.5136 18.4749 32.1028 17.8942 32.5629 17.216C33.3352 16.0674 33.7039 14.6945 33.611 13.3133C33.5937 13.053 33.5603 12.794 33.511 12.5378C33.5826 12.5462 32.069 13.4352 32.069 13.4352Z" fill="#12395D"/>
<path d="M27.3916 16.3833L26.6843 17.0902L27.3916 17.7978L28.0989 17.0902L27.3916 16.3833ZM24.498 13.4882L23.7885 14.1929L23.7907 14.1951L24.498 13.4882ZM24.498 12.3792L25.2075 13.0839L25.2107 13.0806L24.498 12.3792ZM24.7503 12.2084L24.364 11.2861H24.364L24.7503 12.2084ZM25.3477 12.2084L25.7341 11.2861L25.7341 11.2861L25.3477 12.2084ZM25.6 12.3792L24.8873 13.0807L24.8927 13.0861L25.6 12.3792ZM27.3916 14.1717L26.6843 14.8786L27.3911 15.5858L28.0984 14.8791L27.3916 14.1717ZM32.3087 9.25844L33.0156 9.96586L33.0214 9.95993L32.3087 9.25844ZM32.561 9.08765L32.9474 10.01L32.9474 10.01L32.561 9.08765ZM32.8597 9.02763V8.02763V9.02763ZM33.1584 9.08765L32.772 10.01L32.772 10.01L33.1584 9.08765ZM33.4107 9.25844L32.698 9.95993L32.7034 9.96539L32.7089 9.97077L33.4107 9.25844ZM33.5814 9.5109L34.5039 9.12486L34.5039 9.12485L33.5814 9.5109ZM33.5814 10.1086L34.5039 10.4946L34.5039 10.4946L33.5814 10.1086ZM33.4107 10.361L32.7088 9.64869L32.7034 9.65411L33.4107 10.361ZM32.069 13.4352L31.5625 12.5729L31.0302 12.8856L31.0712 13.5015L32.069 13.4352ZM30.9143 16.8453L30.1621 16.1863V16.1863L30.9143 16.8453ZM29.4588 17.9628L29.0165 17.066L29.0165 17.066L29.4588 17.9628ZM27.6865 18.4373L27.6216 17.4394L27.6216 17.4394L27.6865 18.4373ZM25.8616 18.1945L26.1853 17.2483L26.1853 17.2483L25.8616 18.1945ZM22.6911 14.0198L23.6895 13.9617L23.689 13.9548L22.6911 14.0198ZM22.9312 12.2016L21.9843 11.8799L21.9843 11.8799L22.9312 12.2016ZM25.3031 9.49789L24.8611 8.6009V8.6009L25.3031 9.49789ZM27.074 9.02408L27.1389 10.022L27.1399 10.0219L27.074 9.02408ZM29.8617 9.72244L29.3332 10.5714L30.0517 11.0187L30.6116 10.384L29.8617 9.72244ZM30.905 8.53978L31.6549 9.20134L32.4059 8.35011L31.4668 7.71246L30.905 8.53978ZM26.226 7.57269L26.4138 8.5549L26.226 7.57269ZM22.2334 10.1979L21.4061 9.63612L21.406 9.63628L22.2334 10.1979ZM21.2844 12.4432L22.2638 12.6452L21.2844 12.4432ZM22.1853 17.1394L23.0204 16.5893H23.0204L22.1853 17.1394ZM23.8977 18.8738L24.4596 18.0466L24.4584 18.0458L23.8977 18.8738ZM26.1395 19.8224L25.9371 20.8017L26.1395 19.8224ZM28.5736 19.8405L28.7615 20.8227L28.5736 19.8405ZM30.8292 18.9253L31.3788 19.7607H31.3788L30.8292 18.9253ZM32.5629 17.216L33.3904 17.7775L33.3928 17.774L32.5629 17.216ZM33.611 13.3133L32.6133 13.3798L32.6133 13.3804L33.611 13.3133ZM33.511 12.5378L33.6285 11.5447L32.271 11.3842L32.529 12.7266L33.511 12.5378ZM31.6886 13.7236C31.6886 16.0895 29.7706 18.0075 27.4046 18.0075V20.0075C30.8752 20.0075 33.6886 17.1941 33.6886 13.7236H31.6886ZM27.4046 18.0075C25.0387 18.0075 23.1207 16.0895 23.1207 13.7236H21.1207C21.1207 17.1941 23.9341 20.0075 27.4046 20.0075V18.0075ZM23.1207 13.7236C23.1207 11.3576 25.0387 9.4396 27.4046 9.4396V7.4396C23.9341 7.4396 21.1207 10.253 21.1207 13.7236H23.1207ZM27.4046 9.4396C29.7706 9.4396 31.6886 11.3576 31.6886 13.7236H33.6886C33.6886 10.253 30.8752 7.4396 27.4046 7.4396V9.4396ZM28.0989 15.6763L25.2053 12.7813L23.7907 14.1951L26.6843 17.0902L28.0989 15.6763ZM25.2075 12.7835C25.2472 12.8235 25.2695 12.8775 25.2695 12.9337H23.2694C23.2694 13.4055 23.456 13.8582 23.7885 14.1929L25.2075 12.7835ZM25.2695 12.9337C25.2694 12.9899 25.2473 13.0438 25.2075 13.0839L23.7885 11.6744C23.456 12.0092 23.2694 12.462 23.2694 12.9337H25.2695ZM25.2107 13.0806C25.1895 13.1022 25.1643 13.1192 25.1367 13.1307L24.364 11.2861C24.1472 11.3769 23.9504 11.5099 23.7853 11.6777L25.2107 13.0806ZM25.1367 13.1307C25.1091 13.1423 25.0793 13.1483 25.049 13.1483V11.1483C24.8137 11.1483 24.5808 11.1952 24.364 11.2861L25.1367 13.1307ZM25.049 13.1483C25.0188 13.1483 24.989 13.1423 24.9613 13.1307L25.7341 11.2861C25.5172 11.1952 25.2844 11.1483 25.049 11.1483V13.1483ZM24.9613 13.1307C24.9337 13.1192 24.9085 13.1022 24.8873 13.0806L26.3127 11.6777C26.1476 11.5099 25.9509 11.3769 25.7341 11.2861L24.9613 13.1307ZM24.8927 13.0861L26.6843 14.8786L28.0989 13.4647L26.3073 11.6722L24.8927 13.0861ZM28.0984 14.8791L33.0155 9.96583L31.6019 8.55106L26.6848 13.4643L28.0984 14.8791ZM33.0214 9.95993C33.0004 9.98131 32.9752 9.99834 32.9474 10.01L32.1747 8.16531C31.9577 8.25621 31.761 8.38937 31.596 8.55696L33.0214 9.95993ZM32.9474 10.01C32.9195 10.0217 32.8897 10.0276 32.8597 10.0276V8.02763C32.6246 8.02763 32.3917 8.07437 32.1747 8.16531L32.9474 10.01ZM32.8597 10.0276C32.8297 10.0276 32.7999 10.0217 32.772 10.01L33.5448 8.16531C33.3277 8.07437 33.0948 8.02763 32.8597 8.02763V10.0276ZM32.772 10.01C32.7442 9.99834 32.7191 9.98131 32.698 9.95993L34.1234 8.55696C33.9584 8.38937 33.7618 8.25621 33.5448 8.16531L32.772 10.01ZM32.7089 9.97077C32.6875 9.94968 32.6705 9.92458 32.6589 9.89695L34.5039 9.12485C34.4131 8.90793 34.2801 8.7112 34.1126 8.54612L32.7089 9.97077ZM32.6589 9.89695C32.6474 9.86932 32.6414 9.83967 32.6414 9.80972H34.6414C34.6414 9.57456 34.5947 9.34177 34.5039 9.12486L32.6589 9.89695ZM32.6414 9.80972C32.6414 9.77982 32.6474 9.7502 32.6589 9.72253L34.5039 10.4946C34.5947 10.2777 34.6414 10.0448 34.6414 9.80972H32.6414ZM32.6589 9.72252C32.6705 9.69489 32.6875 9.66979 32.7089 9.64871L34.1126 11.0734C34.2801 10.9083 34.4131 10.7115 34.5039 10.4946L32.6589 9.72252ZM32.7034 9.65411L26.6843 15.6763L28.0989 17.0902L34.118 11.068L32.7034 9.65411ZM31.0712 13.5015C31.1034 13.9869 31.0397 14.4739 30.8837 14.9346L32.7781 15.576C33.0184 14.8664 33.1164 14.1164 33.0668 13.3689L31.0712 13.5015ZM30.8837 14.9346C30.7277 15.3953 30.4825 15.8206 30.1621 16.1863L31.6664 17.5043C32.1601 16.9409 32.5378 16.2856 32.7781 15.576L30.8837 14.9346ZM30.1621 16.1863C29.8417 16.5521 29.4524 16.851 29.0165 17.066L29.9012 18.8596C30.5729 18.5283 31.1728 18.0677 31.6664 17.5043L30.1621 16.1863ZM29.0165 17.066C28.5805 17.281 28.1065 17.4079 27.6216 17.4394L27.7515 19.4352C28.4989 19.3866 29.2294 19.191 29.9012 18.8596L29.0165 17.066ZM27.6216 17.4394C27.1349 17.4711 26.6468 17.4062 26.1853 17.2483L25.5379 19.1407C26.2491 19.3839 27.0014 19.4841 27.7515 19.4352L27.6216 17.4394ZM26.1853 17.2483C25.7237 17.0904 25.298 16.8428 24.9325 16.5195L23.6076 18.0178C24.1707 18.5157 24.8267 18.8974 25.5379 19.1407L26.1853 17.2483ZM24.9325 16.5195C24.567 16.1963 24.2689 15.8039 24.0556 15.3649L22.2568 16.2391C22.5854 16.9152 23.0444 17.5198 23.6076 18.0178L24.9325 16.5195ZM24.0556 15.3649C23.8422 14.9259 23.7178 14.449 23.6894 13.9617L21.6928 14.0779C21.7365 14.8284 21.9281 15.5629 22.2568 16.2391L24.0556 15.3649ZM23.689 13.9548C23.6574 13.4698 23.7217 12.9834 23.878 12.5233L21.9843 11.8799C21.7435 12.5886 21.6446 13.3378 21.6932 14.0847L23.689 13.9548ZM23.878 12.5233C24.0343 12.0631 24.2797 11.6384 24.6001 11.2732L23.0967 9.95419C22.6031 10.5168 22.2251 11.1711 21.9843 11.8799L23.878 12.5233ZM24.6001 11.2732C24.9205 10.908 25.3096 10.6095 25.7452 10.3949L24.8611 8.6009C24.1898 8.93172 23.5902 9.3916 23.0967 9.95419L24.6001 11.2732ZM25.7452 10.3949C26.1808 10.1802 26.6544 10.0535 27.1389 10.022L27.009 8.02619C26.2622 8.07479 25.5324 8.27008 24.8611 8.6009L25.7452 10.3949ZM27.1399 10.0219C27.9104 9.97101 28.6775 10.1632 29.3332 10.5714L30.3902 8.8735C29.3792 8.2441 28.1963 7.94777 27.008 8.02625L27.1399 10.0219ZM30.6116 10.384L31.6549 9.20134L30.1551 7.87822L29.1118 9.06088L30.6116 10.384ZM31.4668 7.71246C29.8775 6.63335 27.9248 6.22973 26.0382 6.59049L26.4138 8.5549C27.7793 8.29379 29.1927 8.58589 30.3433 9.3671L31.4668 7.71246ZM26.0382 6.59049C24.1515 6.95125 22.4854 8.0468 21.4061 9.63612L23.0606 10.7597C23.8421 9.60901 25.0482 8.81602 26.4138 8.5549L26.0382 6.59049ZM21.406 9.63628C20.8714 10.4238 20.4973 11.309 20.305 12.2412L22.2638 12.6452C22.403 11.9703 22.6738 11.3296 23.0607 10.7596L21.406 9.63628ZM20.305 12.2412C20.1128 13.1735 20.1061 14.1346 20.2854 15.0694L22.2496 14.6926C22.1198 14.0158 22.1246 13.3201 22.2638 12.6452L20.305 12.2412ZM20.2854 15.0694C20.4648 16.0043 20.8266 16.8946 21.3502 17.6895L23.0204 16.5893C22.6414 16.0139 22.3794 15.3694 22.2496 14.6926L20.2854 15.0694ZM21.3502 17.6895C21.8738 18.4844 22.5489 19.1682 23.337 19.7018L24.4584 18.0458C23.888 17.6596 23.3994 17.1646 23.0204 16.5893L21.3502 17.6895ZM23.3357 19.701C24.1222 20.2352 25.0061 20.6093 25.9371 20.8017L26.342 18.8431C25.6684 18.7039 25.0287 18.4332 24.4596 18.0466L23.3357 19.701ZM25.9371 20.8017C26.868 20.9942 27.8278 21.0013 28.7615 20.8227L28.3857 18.8583C27.7101 18.9876 27.0156 18.9824 26.342 18.8431L25.9371 20.8017ZM28.7615 20.8227C29.6952 20.6441 30.5845 20.2832 31.3788 19.7607L30.2795 18.0898C29.7048 18.4679 29.0613 18.7291 28.3857 18.8583L28.7615 20.8227ZM31.3788 19.7607C32.173 19.2382 32.8565 18.5643 33.3904 17.7775L31.7354 16.6545C31.349 17.224 30.8543 17.7117 30.2795 18.0898L31.3788 19.7607ZM33.3928 17.774C34.2888 16.4414 34.7166 14.8486 34.6088 13.2462L32.6133 13.3804C32.6913 14.5404 32.3816 15.6935 31.7331 16.658L33.3928 17.774ZM34.6088 13.2468C34.5887 12.9454 34.5501 12.6456 34.4931 12.349L32.529 12.7266C32.5705 12.9424 32.5986 13.1605 32.6133 13.3798L34.6088 13.2468ZM33.3936 13.5309C33.294 13.5191 32.9152 13.459 32.6712 13.0783C32.414 12.6768 32.5377 12.2884 32.5836 12.1725C32.6375 12.0366 32.7086 11.9466 32.7325 11.9169C32.7648 11.8768 32.7934 11.848 32.8086 11.8332C32.8575 11.7855 32.8965 11.7591 32.8815 11.77C32.8722 11.7768 32.8397 11.799 32.7762 11.8397C32.656 11.9168 32.4829 12.023 32.2996 12.1338C32.1181 12.2435 31.9338 12.3533 31.7943 12.436C31.7247 12.4773 31.6666 12.5116 31.6259 12.5356C31.6056 12.5476 31.5896 12.557 31.5788 12.5634C31.5734 12.5665 31.5693 12.569 31.5665 12.5706C31.5652 12.5714 31.5641 12.572 31.5635 12.5724C31.5631 12.5726 31.5629 12.5727 31.5627 12.5728C31.5627 12.5729 31.5626 12.5729 31.5626 12.5729C31.5625 12.5729 31.5625 12.5729 31.5625 12.5729C31.5625 12.5729 31.5625 12.5729 32.069 13.4352C32.5754 14.2975 32.5754 14.2975 32.5754 14.2975C32.5754 14.2975 32.5755 14.2975 32.5755 14.2974C32.5756 14.2974 32.5756 14.2973 32.5757 14.2973C32.576 14.2972 32.5763 14.297 32.5767 14.2968C32.5774 14.2963 32.5786 14.2956 32.5801 14.2947C32.5831 14.293 32.5874 14.2904 32.5931 14.2871C32.6044 14.2804 32.6209 14.2707 32.6418 14.2584C32.6836 14.2337 32.7432 14.1986 32.8144 14.1564C32.9565 14.0721 33.1461 13.9591 33.3341 13.8455C33.5202 13.733 33.7121 13.6154 33.8556 13.5234C33.9239 13.4796 33.998 13.431 34.0577 13.3875C34.0773 13.3733 34.1414 13.327 34.2047 13.2653C34.2235 13.247 34.2549 13.2151 34.2894 13.1723C34.3155 13.1399 34.3881 13.0475 34.4428 12.9098C34.4895 12.7919 34.6132 12.402 34.3553 11.9994C34.1106 11.6175 33.7303 11.5567 33.6285 11.5447L33.3936 13.5309Z" fill="white" mask="url(#path-4-outside-1_380_523)"/>
<defs>
<clipPath id="clip0_380_523">
<rect x="9.15527e-05" y="0.461418" width="26" height="26" rx="13" fill="white"/>
</clipPath>
</defs>
</svg>
